<!-- icon666.com - MILLIONS vector ICONS FREE --><svg viewBox="0 0 64 64" xmlns="http://www.w3.org/2000/svg"><g id="box-delicious-spoon-fork-rice"><path d="m55 15c3.31 0 6 3.58 6 8 0 3.49-1.67 6.45-4 7.54a4.578 4.578 0 0 1 -4 0c-2.33-1.09-4-4.05-4-7.54 0-4.42 2.69-8 6-8z" fill="#c6c5ca"></path><path d="m61 23c0 3.49-1.67 6.45-4 7.54a4.578 4.578 0 0 1 -4 0c2.33-1.09 4-4.05 4-7.54s-1.67-6.45-4-7.54a4.615 4.615 0 0 1 2-.46c3.31 0 6 3.58 6 8z" fill="#898890"></path><path d="m52 41h6v20h-6z" fill="#ff3051"></path><path d="m57 30.54v10.46h-4v-10.46a4.578 4.578 0 0 0 4 0z" fill="#a78966"></path><path d="m57 30.54v10.46h-2v-10a4.615 4.615 0 0 0 2-.46z" fill="#806749"></path><path d="m16 43h32v4h-32z" fill="#a78966"></path><path d="m46 47v10a4 4 0 0 1 -4 4h-20a4 4 0 0 1 -4-4v-10z" fill="#fee9ab"></path><path d="m19 26h26v4h-26z" fill="#91dc5a"></path><path d="m43 30v9a4 4 0 0 1 -4 4h-14a4 4 0 0 1 -4-4v-9z" fill="#fee9ab"></path><path d="m6 41h6v20h-6z" fill="#ff3051"></path><path d="m11 30.65v10.35h-4v-10.35a5.889 5.889 0 0 0 4 0z" fill="#a78966"></path><path d="m42 26h3v4h-3z" fill="#5eac24"></path><path d="m43 30v9a4 4 0 0 1 -4 4h-3a4 4 0 0 0 4-4v-9z" fill="#ffde55"></path><path d="m45 43h3v4h-3z" fill="#806749"></path><path d="m46 47v10a4 4 0 0 1 -4 4h-3a4 4 0 0 0 4-4v-10z" fill="#ffde55"></path><path d="m55 41h3v20h-3z" fill="#cd2a00"></path><path d="m9 41h3v20h-3z" fill="#cd2a00"></path><path d="m11 30.54v10.46h-2v-10a4.615 4.615 0 0 0 2-.46z" fill="#806749"></path><path d="m14 16v9a5.017 5.017 0 0 1 -4 4.9v-13.9h-2v13.9a5.017 5.017 0 0 1 -4-4.9v-9h-2v9a7 7 0 0 0 4 6.31v8.69a1 1 0 0 0 -1 1v20a1 1 0 0 0 1 1h6a1 1 0 0 0 1-1v-20a1 1 0 0 0 -1-1v-8.69a7 7 0 0 0 4-6.31v-9zm-6 15.92a6.29 6.29 0 0 0 2 0v8.08h-2zm3 28.08h-4v-18h4z"></path><path d="m62 23c0-4.96-3.14-9-7-9s-7 4.04-7 9a9.463 9.463 0 0 0 4 8.12v8.88a1 1 0 0 0 -1 1v20a1 1 0 0 0 1 1h6a1 1 0 0 0 1-1v-20a1 1 0 0 0 -1-1v-8.88a9.463 9.463 0 0 0 4-8.12zm-5 37h-4v-18h4zm-3-20v-8.1a5.05 5.05 0 0 0 2 0v8.1zm1-10c-2.76 0-5-3.14-5-7s2.24-7 5-7 5 3.14 5 7-2.24 7-5 7z"></path><path d="m48 42h-5.03a4.924 4.924 0 0 0 1.03-3v-8h1a1 1 0 0 0 1-1v-4a1 1 0 0 0 -1-1h-26a1 1 0 0 0 -1 1v4a1 1 0 0 0 1 1h1v8a4.924 4.924 0 0 0 1.03 3h-5.03a1 1 0 0 0 -1 1v4a1 1 0 0 0 1 1h1v9a5 5 0 0 0 5 5h20a5 5 0 0 0 5-5v-9h1a1 1 0 0 0 1-1v-4a1 1 0 0 0 -1-1zm-28-13v-2h24v2zm22 2v8a3.009 3.009 0 0 1 -3 3h-14a3.009 3.009 0 0 1 -3-3v-8zm3 26a3.009 3.009 0 0 1 -3 3h-20a3.009 3.009 0 0 1 -3-3v-9h26zm2-11h-30v-2h30z"></path><path d="m22 16h2a2.267 2.267 0 0 1 .759-1.684 4.208 4.208 0 0 0 0-5.968 2.244 2.244 0 0 1 0-3.365 4.162 4.162 0 0 0 1.241-2.983h-2a2.258 2.258 0 0 1 -.759 1.681 4.207 4.207 0 0 0 0 5.967 2.248 2.248 0 0 1 0 3.368 4.163 4.163 0 0 0 -1.241 2.984z"></path><path d="m30 16h2a2.267 2.267 0 0 1 .759-1.684 4.208 4.208 0 0 0 0-5.968 2.244 2.244 0 0 1 0-3.365 4.162 4.162 0 0 0 1.241-2.983h-2a2.258 2.258 0 0 1 -.759 1.681 4.207 4.207 0 0 0 0 5.967 2.248 2.248 0 0 1 0 3.368 4.163 4.163 0 0 0 -1.241 2.984z"></path><path d="m38 16h2a2.267 2.267 0 0 1 .759-1.684 4.208 4.208 0 0 0 0-5.968 2.244 2.244 0 0 1 0-3.365 4.162 4.162 0 0 0 1.241-2.983h-2a2.258 2.258 0 0 1 -.759 1.681 4.207 4.207 0 0 0 0 5.967 2.248 2.248 0 0 1 0 3.368 4.163 4.163 0 0 0 -1.241 2.984z"></path></g></svg>