<?xml version="1.0" encoding="UTF-8" standalone="no"?>
<!DOCTYPE svg PUBLIC "-//W3C//DTD SVG 1.1//EN" "http://www.w3.org/Graphics/SVG/1.1/DTD/svg11.dtd">
<svg xmlns="http://www.w3.org/2000/svg" xmlns:xlink="http://www.w3.org/1999/xlink" xmlns:serif="http://www.serif.com/" width="100%" height="100%" viewBox="0 0 269 95" version="1.1" xml:space="preserve" style="fill-rule:evenodd;clip-rule:evenodd;stroke-linejoin:round;stroke-miterlimit:2;">
  <rect id="Artboard1" x="0" y="0" width="268.4" height="94.85" style="fill:none;"/>
  <g>
    <g>
      <path d="M100.823,17.336c2.069,0 3.887,0.423 5.454,1.27c1.568,0.846 2.783,2.045 3.645,3.597c0.862,1.552 1.293,3.331 1.293,5.337c-0,1.975 -0.447,3.715 -1.34,5.22c-0.894,1.505 -2.148,2.672 -3.762,3.503c-1.615,0.831 -3.472,1.246 -5.572,1.246l-6.678,0c-0.157,0 -0.235,0.079 -0.235,0.235l0,11.991c0,0.157 -0.055,0.29 -0.165,0.4c-0.109,0.11 -0.242,0.165 -0.399,0.165l-5.502,-0c-0.157,-0 -0.29,-0.055 -0.4,-0.165c-0.109,-0.11 -0.164,-0.243 -0.164,-0.4l-0,-31.834c-0,-0.157 0.055,-0.29 0.164,-0.4c0.11,-0.11 0.243,-0.165 0.4,-0.165l13.261,0Zm-0.988,14.86c1.442,-0 2.602,-0.416 3.48,-1.246c0.878,-0.831 1.317,-1.921 1.317,-3.269c-0,-1.379 -0.439,-2.492 -1.317,-3.338c-0.878,-0.847 -2.038,-1.27 -3.48,-1.27l-5.972,0c-0.157,0 -0.235,0.079 -0.235,0.235l0,8.653c0,0.156 0.078,0.235 0.235,0.235l5.972,-0Z" style="fill:#7f152e;fill-rule:nonzero;"/>
      <path d="M126.921,25.801c1.128,-0 2.022,0.219 2.68,0.658c0.251,0.125 0.345,0.36 0.282,0.705l-0.987,5.361c-0.032,0.376 -0.251,0.486 -0.659,0.329c-0.47,-0.157 -1.018,-0.235 -1.645,-0.235c-0.251,-0 -0.596,0.031 -1.035,0.094c-1.129,0.094 -2.085,0.509 -2.868,1.246c-0.784,0.737 -1.176,1.716 -1.176,2.939l0,12.837c0,0.157 -0.055,0.29 -0.165,0.4c-0.109,0.11 -0.243,0.165 -0.399,0.165l-5.502,-0c-0.157,-0 -0.29,-0.055 -0.4,-0.165c-0.109,-0.11 -0.164,-0.243 -0.164,-0.4l-0,-23.041c-0,-0.157 0.055,-0.29 0.164,-0.4c0.11,-0.109 0.243,-0.164 0.4,-0.164l5.502,-0c0.156,-0 0.29,0.055 0.399,0.164c0.11,0.11 0.165,0.243 0.165,0.4l0,1.787c0,0.094 0.031,0.157 0.094,0.188c0.063,0.031 0.11,0.016 0.141,-0.047c1.285,-1.881 3.01,-2.821 5.173,-2.821Z" style="fill:#7f152e;fill-rule:nonzero;"/>
      <path d="M142.956,50.676c-2.634,-0 -4.891,-0.69 -6.772,-2.069c-1.881,-1.379 -3.166,-3.26 -3.856,-5.643c-0.438,-1.473 -0.658,-3.072 -0.658,-4.796c0,-1.85 0.22,-3.511 0.658,-4.985c0.721,-2.32 2.022,-4.138 3.903,-5.455c1.881,-1.316 4.138,-1.975 6.772,-1.975c2.57,0 4.765,0.651 6.583,1.952c1.818,1.301 3.104,3.111 3.856,5.431c0.502,1.568 0.752,3.213 0.752,4.938c0,1.692 -0.219,3.276 -0.658,4.749c-0.69,2.445 -1.967,4.365 -3.832,5.76c-1.866,1.395 -4.115,2.093 -6.748,2.093Zm-0,-5.69c1.034,0 1.912,-0.313 2.633,-0.94c0.721,-0.627 1.238,-1.489 1.552,-2.587c0.251,-1.003 0.376,-2.1 0.376,-3.291c0,-1.317 -0.125,-2.43 -0.376,-3.339c-0.345,-1.066 -0.878,-1.897 -1.599,-2.492c-0.721,-0.596 -1.599,-0.894 -2.633,-0.894c-1.066,0 -1.952,0.298 -2.657,0.894c-0.705,0.595 -1.215,1.426 -1.528,2.492c-0.251,0.752 -0.377,1.865 -0.377,3.339c0,1.41 0.11,2.508 0.33,3.291c0.313,1.098 0.838,1.96 1.575,2.587c0.737,0.627 1.638,0.94 2.704,0.94Z" style="fill:#7f152e;fill-rule:nonzero;"/>
      <path d="M171.593,26.083c0.157,-0 0.29,0.055 0.4,0.164c0.109,0.11 0.164,0.243 0.164,0.4l0,4.467c0,0.157 -0.055,0.29 -0.164,0.4c-0.11,0.11 -0.243,0.164 -0.4,0.164l-4.561,0c-0.157,0 -0.235,0.079 -0.235,0.236l-0,17.821c-0,0.157 -0.055,0.29 -0.165,0.4c-0.11,0.11 -0.243,0.165 -0.4,0.165l-5.501,-0c-0.157,-0 -0.29,-0.055 -0.4,-0.165c-0.11,-0.11 -0.165,-0.243 -0.165,-0.4l0,-17.821c0,-0.157 -0.078,-0.236 -0.235,-0.236l-2.774,0c-0.157,0 -0.29,-0.054 -0.4,-0.164c-0.11,-0.11 -0.164,-0.243 -0.164,-0.4l-0,-4.467c-0,-0.157 0.054,-0.29 0.164,-0.4c0.11,-0.109 0.243,-0.164 0.4,-0.164l2.774,-0c0.157,-0 0.235,-0.079 0.235,-0.235l0,-1.035c0,-1.944 0.298,-3.456 0.894,-4.538c0.595,-1.081 1.559,-1.849 2.892,-2.304c1.332,-0.454 3.174,-0.65 5.525,-0.588l1.787,0c0.157,0 0.29,0.055 0.4,0.165c0.109,0.11 0.164,0.243 0.164,0.4l0,3.808c0,0.157 -0.055,0.29 -0.164,0.4c-0.11,0.11 -0.243,0.165 -0.4,0.165l-1.552,-0c-1.097,0.031 -1.857,0.258 -2.281,0.682c-0.423,0.423 -0.634,1.199 -0.634,2.327l-0,0.518c-0,0.156 0.078,0.235 0.235,0.235l4.561,-0Z" style="fill:#7f152e;fill-rule:nonzero;"/>
      <path d="M180.057,23.402c-1.066,0 -1.951,-0.352 -2.657,-1.058c-0.705,-0.705 -1.058,-1.591 -1.058,-2.657c0,-1.097 0.345,-1.99 1.035,-2.68c0.69,-0.69 1.583,-1.034 2.68,-1.034c1.098,-0 1.991,0.344 2.681,1.034c0.689,0.69 1.034,1.583 1.034,2.68c0,1.066 -0.353,1.952 -1.058,2.657c-0.705,0.706 -1.591,1.058 -2.657,1.058Zm-2.821,26.898c-0.157,-0 -0.29,-0.055 -0.4,-0.165c-0.11,-0.11 -0.164,-0.243 -0.164,-0.4l-0,-23.088c-0,-0.157 0.054,-0.29 0.164,-0.4c0.11,-0.109 0.243,-0.164 0.4,-0.164l5.502,-0c0.156,-0 0.29,0.055 0.399,0.164c0.11,0.11 0.165,0.243 0.165,0.4l-0,23.088c-0,0.157 -0.055,0.29 -0.165,0.4c-0.109,0.11 -0.243,0.165 -0.399,0.165l-5.502,-0Z" style="fill:#7f152e;fill-rule:nonzero;"/>
      <path d="M202.817,30.879c-0,0.157 -0.055,0.29 -0.165,0.4c-0.11,0.109 -0.243,0.164 -0.4,0.164l-4.514,0c-0.157,0 -0.235,0.079 -0.235,0.235l0,9.969c0,1.035 0.212,1.803 0.635,2.305c0.423,0.501 1.105,0.752 2.045,0.752l1.552,-0c0.157,-0 0.29,0.055 0.4,0.165c0.11,0.109 0.164,0.243 0.164,0.399l0,4.467c0,0.345 -0.188,0.549 -0.564,0.612c-1.317,0.062 -2.257,0.094 -2.821,0.094c-2.602,-0 -4.546,-0.431 -5.831,-1.293c-1.285,-0.862 -1.944,-2.485 -1.975,-4.867l-0,-12.603c-0,-0.156 -0.079,-0.235 -0.235,-0.235l-2.681,0c-0.156,0 -0.29,-0.055 -0.399,-0.164c-0.11,-0.11 -0.165,-0.243 -0.165,-0.4l0,-4.185c0,-0.157 0.055,-0.29 0.165,-0.4c0.109,-0.109 0.243,-0.164 0.399,-0.164l2.681,-0c0.156,-0 0.235,-0.079 0.235,-0.235l-0,-5.596c-0,-0.157 0.055,-0.29 0.164,-0.4c0.11,-0.11 0.243,-0.165 0.4,-0.165l5.267,0c0.156,0 0.29,0.055 0.399,0.165c0.11,0.11 0.165,0.243 0.165,0.4l0,5.596c0,0.156 0.078,0.235 0.235,0.235l4.514,-0c0.157,-0 0.29,0.055 0.4,0.164c0.11,0.11 0.165,0.243 0.165,0.4l-0,4.185Z" style="fill:#7f152e;fill-rule:nonzero;"/>
      <path d="M216.454,25.753c2.037,0 3.855,0.353 5.454,1.059c1.599,0.705 2.845,1.669 3.739,2.891c0.893,1.223 1.34,2.587 1.34,4.092l-0,15.94c-0,0.157 -0.055,0.29 -0.165,0.4c-0.11,0.11 -0.243,0.165 -0.4,0.165l-5.501,-0c-0.157,-0 -0.29,-0.055 -0.4,-0.165c-0.11,-0.11 -0.165,-0.243 -0.165,-0.4l0,-1.551c0,-0.094 -0.031,-0.157 -0.094,-0.188c-0.062,-0.032 -0.125,-0 -0.188,0.094c-1.316,1.724 -3.432,2.586 -6.348,2.586c-2.445,-0 -4.42,-0.596 -5.925,-1.787c-1.505,-1.191 -2.257,-2.947 -2.257,-5.267c0,-2.413 0.846,-4.287 2.539,-5.619c1.693,-1.332 4.107,-1.998 7.242,-1.998l4.796,-0c0.157,-0 0.235,-0.079 0.235,-0.236l0,-1.034c0,-1.035 -0.313,-1.842 -0.94,-2.422c-0.627,-0.58 -1.567,-0.87 -2.821,-0.87c-0.972,0 -1.779,0.173 -2.422,0.518c-0.643,0.344 -1.058,0.83 -1.246,1.457c-0.094,0.345 -0.298,0.502 -0.612,0.471l-5.689,-0.753c-0.377,-0.063 -0.549,-0.204 -0.518,-0.423c0.126,-1.317 0.651,-2.508 1.576,-3.574c0.924,-1.066 2.147,-1.896 3.667,-2.492c1.521,-0.596 3.222,-0.894 5.103,-0.894Zm-0.941,19.985c1.348,0 2.492,-0.36 3.433,-1.081c0.94,-0.721 1.41,-1.646 1.41,-2.774l0,-1.693c0,-0.157 -0.078,-0.235 -0.235,-0.235l-3.385,-0c-1.411,-0 -2.516,0.266 -3.316,0.799c-0.799,0.533 -1.199,1.285 -1.199,2.257c0,0.847 0.298,1.513 0.894,1.999c0.595,0.486 1.395,0.728 2.398,0.728Z" style="fill:#7f152e;fill-rule:nonzero;"/>
      <path d="M232.206,50.3c-0.156,-0 -0.29,-0.055 -0.399,-0.165c-0.11,-0.11 -0.165,-0.243 -0.165,-0.4l0,-31.787c0,-0.157 0.055,-0.29 0.165,-0.4c0.109,-0.11 0.243,-0.165 0.399,-0.165l5.502,0c0.157,0 0.29,0.055 0.4,0.165c0.11,0.11 0.164,0.243 0.164,0.4l0,15.847c0,0.094 0.032,0.148 0.094,0.164c0.063,0.016 0.126,-0.008 0.189,-0.07l6.395,-7.43c0.219,-0.22 0.454,-0.329 0.705,-0.329l6.254,-0c0.314,-0 0.47,0.109 0.47,0.329c0,0.094 -0.047,0.219 -0.141,0.376l-5.972,7.571c-0.062,0.125 -0.078,0.235 -0.047,0.329l7.007,14.906c0.063,0.126 0.094,0.22 0.094,0.283c-0,0.25 -0.172,0.376 -0.517,0.376l-5.784,-0c-0.314,-0 -0.533,-0.141 -0.659,-0.423l-4.655,-11.004c-0.031,-0.063 -0.086,-0.102 -0.164,-0.118c-0.079,-0.015 -0.134,0.008 -0.165,0.071l-3.01,3.762c-0.062,0.125 -0.094,0.219 -0.094,0.282l0,6.865c0,0.157 -0.054,0.29 -0.164,0.4c-0.11,0.11 -0.243,0.165 -0.4,0.165l-5.502,-0Z" style="fill:#7f152e;fill-rule:nonzero;"/>
      <path d="M199.918,64.42c0,-0.082 0.029,-0.152 0.087,-0.21c0.057,-0.057 0.127,-0.086 0.21,-0.086l2.272,-0c0.083,-0 0.153,0.029 0.21,0.086c0.058,0.058 0.087,0.128 0.087,0.21l-0,11.486c-0,2.059 -0.589,3.528 -1.766,4.409c-1.178,0.881 -2.722,1.322 -4.632,1.322c-0.51,-0 -1.013,-0.025 -1.507,-0.074c-0.181,-0.017 -0.271,-0.124 -0.271,-0.321l0.074,-2.026c-0,-0.181 0.115,-0.272 0.346,-0.272c0.477,0.05 0.905,0.075 1.284,0.075c1.235,-0 2.145,-0.243 2.729,-0.729c0.585,-0.486 0.877,-1.305 0.877,-2.458l0,-0.197c0,-0.05 -0.016,-0.079 -0.049,-0.087c-0.033,-0.008 -0.066,0.004 -0.099,0.037c-0.675,0.725 -1.63,1.087 -2.865,1.087c-1.071,-0 -2.05,-0.272 -2.94,-0.815c-0.889,-0.544 -1.506,-1.375 -1.852,-2.495c-0.214,-0.774 -0.321,-1.77 -0.321,-2.989c-0,-1.367 0.131,-2.412 0.395,-3.137c0.329,-1.004 0.897,-1.807 1.704,-2.408c0.807,-0.601 1.754,-0.902 2.841,-0.902c1.301,0 2.314,0.379 3.038,1.137c0.033,0.049 0.066,0.065 0.099,0.049c0.033,-0.017 0.049,-0.049 0.049,-0.099l0,-0.593Zm-0.173,8.127c0.066,-0.247 0.112,-0.515 0.136,-0.803c0.025,-0.288 0.037,-0.753 0.037,-1.395c0,-0.626 -0.012,-1.075 -0.037,-1.347c-0.024,-0.271 -0.078,-0.539 -0.16,-0.802c-0.132,-0.544 -0.4,-0.98 -0.803,-1.31c-0.403,-0.329 -0.918,-0.494 -1.544,-0.494c-0.593,0 -1.095,0.165 -1.507,0.494c-0.411,0.33 -0.708,0.766 -0.889,1.31c-0.197,0.461 -0.296,1.185 -0.296,2.173c-0,1.021 0.082,1.738 0.247,2.149c0.164,0.527 0.465,0.959 0.901,1.297c0.437,0.338 0.96,0.506 1.569,0.506c0.642,0 1.161,-0.164 1.556,-0.494c0.395,-0.329 0.659,-0.757 0.79,-1.284Z" style="fill:#ff5d12;fill-rule:nonzero;"/>
      <path d="M211.627,63.976c0.527,-0 0.988,0.107 1.383,0.321c0.132,0.066 0.181,0.189 0.148,0.37l-0.42,2.223c-0.016,0.198 -0.132,0.256 -0.346,0.173c-0.247,-0.082 -0.535,-0.123 -0.864,-0.123c-0.214,-0 -0.379,0.008 -0.494,0.024c-0.692,0.033 -1.268,0.276 -1.729,0.729c-0.461,0.453 -0.692,1.042 -0.692,1.766l0,6.991c0,0.082 -0.029,0.152 -0.086,0.21c-0.058,0.057 -0.128,0.086 -0.21,0.086l-2.273,0c-0.082,0 -0.152,-0.029 -0.21,-0.086c-0.057,-0.058 -0.086,-0.128 -0.086,-0.21l-0,-12.03c-0,-0.082 0.029,-0.152 0.086,-0.21c0.058,-0.057 0.128,-0.086 0.21,-0.086l2.273,-0c0.082,-0 0.152,0.029 0.21,0.086c0.057,0.058 0.086,0.128 0.086,0.21l0,1.112c0,0.066 0.012,0.103 0.037,0.111c0.025,0.008 0.054,-0.012 0.087,-0.062c0.691,-1.07 1.655,-1.605 2.89,-1.605Z" style="fill:#ff5d12;fill-rule:nonzero;"/>
      <path d="M220.148,76.944c-1.3,-0 -2.416,-0.33 -3.347,-0.988c-0.93,-0.659 -1.585,-1.573 -1.963,-2.742c-0.28,-0.889 -0.42,-1.828 -0.42,-2.816c-0,-1.054 0.132,-1.993 0.395,-2.816c0.379,-1.153 1.037,-2.05 1.976,-2.692c0.939,-0.643 2.067,-0.964 3.384,-0.964c1.252,0 2.334,0.321 3.248,0.964c0.914,0.642 1.561,1.531 1.939,2.667c0.297,0.791 0.445,1.729 0.445,2.816c-0,1.038 -0.14,1.976 -0.42,2.816c-0.379,1.169 -1.029,2.087 -1.951,2.754c-0.923,0.667 -2.018,1.001 -3.286,1.001Zm0,-2.47c0.61,-0 1.133,-0.173 1.569,-0.519c0.436,-0.346 0.753,-0.832 0.951,-1.458c0.165,-0.543 0.247,-1.235 0.247,-2.074c-0,-0.89 -0.082,-1.581 -0.247,-2.075c-0.181,-0.626 -0.494,-1.108 -0.939,-1.445c-0.444,-0.338 -0.988,-0.507 -1.63,-0.507c-0.609,0 -1.136,0.169 -1.581,0.507c-0.444,0.337 -0.766,0.819 -0.963,1.445c-0.165,0.576 -0.247,1.268 -0.247,2.075c-0,0.807 0.082,1.498 0.247,2.074c0.181,0.626 0.498,1.112 0.951,1.458c0.453,0.346 1,0.519 1.642,0.519Z" style="fill:#ff5d12;fill-rule:nonzero;"/>
      <path d="M235.982,64.42c-0,-0.082 0.029,-0.152 0.086,-0.21c0.058,-0.057 0.128,-0.086 0.21,-0.086l2.248,-0c0.082,-0 0.152,0.029 0.21,0.086c0.058,0.058 0.086,0.128 0.086,0.21l0,12.03c0,0.082 -0.028,0.152 -0.086,0.21c-0.058,0.057 -0.128,0.086 -0.21,0.086l-2.248,0c-0.082,0 -0.152,-0.029 -0.21,-0.086c-0.057,-0.058 -0.086,-0.128 -0.086,-0.21l-0,-0.791c-0,-0.049 -0.017,-0.082 -0.05,-0.099c-0.033,-0.016 -0.066,0 -0.098,0.05c-0.676,0.873 -1.688,1.309 -3.039,1.309c-1.251,-0 -2.301,-0.362 -3.149,-1.087c-0.848,-0.724 -1.272,-1.754 -1.272,-3.087l-0,-8.325c-0,-0.082 0.029,-0.152 0.086,-0.21c0.058,-0.057 0.128,-0.086 0.21,-0.086l2.273,-0c0.082,-0 0.152,0.029 0.21,0.086c0.057,0.058 0.086,0.128 0.086,0.21l0,7.509c0,0.774 0.202,1.392 0.605,1.853c0.404,0.461 0.968,0.692 1.692,0.692c0.741,-0 1.334,-0.231 1.779,-0.692c0.444,-0.461 0.667,-1.079 0.667,-1.853l-0,-7.509Z" style="fill:#ff5d12;fill-rule:nonzero;"/>
      <path d="M252.581,67.384c0.296,0.84 0.444,1.869 0.444,3.088c0,1.169 -0.14,2.174 -0.42,3.014c-0.362,1.086 -0.942,1.934 -1.741,2.544c-0.799,0.609 -1.807,0.914 -3.026,0.914c-1.169,-0 -2.108,-0.42 -2.816,-1.26c-0.033,-0.033 -0.066,-0.041 -0.099,-0.025c-0.032,0.017 -0.049,0.05 -0.049,0.099l0,5.36c0,0.082 -0.029,0.152 -0.086,0.21c-0.058,0.058 -0.128,0.087 -0.21,0.087l-2.273,-0c-0.082,-0 -0.152,-0.029 -0.21,-0.087c-0.057,-0.058 -0.086,-0.128 -0.086,-0.21l-0,-16.698c-0,-0.082 0.029,-0.152 0.086,-0.21c0.058,-0.057 0.128,-0.086 0.21,-0.086l2.273,-0c0.082,-0 0.152,0.029 0.21,0.086c0.057,0.058 0.086,0.128 0.086,0.21l0,0.741c0,0.05 0.017,0.083 0.049,0.099c0.033,0.017 0.066,0 0.099,-0.049c0.725,-0.857 1.672,-1.285 2.841,-1.285c1.169,0 2.157,0.305 2.964,0.914c0.807,0.609 1.391,1.458 1.754,2.544Zm-3.211,6.052c0.494,-0.757 0.741,-1.762 0.741,-3.013c-0,-1.202 -0.198,-2.149 -0.593,-2.841c-0.461,-0.807 -1.161,-1.21 -2.1,-1.21c-0.856,-0 -1.498,0.395 -1.926,1.185c-0.379,0.643 -0.569,1.598 -0.569,2.866c0,1.301 0.206,2.289 0.618,2.964c0.428,0.724 1.046,1.087 1.853,1.087c0.872,-0 1.531,-0.346 1.976,-1.038Z" style="fill:#ff5d12;fill-rule:nonzero;"/>
    </g>
    <g>
      <path d="M30.209,59.319l-0,-20.888c-0,-4.151 -3.366,-7.517 -7.518,-7.517c0,-0 0,-0 -0,-0c-4.152,-0 -7.518,3.366 -7.518,7.517c0,4.065 0,10.737 0,15.141c0,5.11 4.143,9.252 9.252,9.252l2.279,-0c0,-0 0,-0 0,4.678c0,8.78 3.433,12.213 12.213,12.213c2.729,-0 5.616,-0 8.157,-0c4.764,-0 8.687,-3.6 9.195,-8.229l117.921,-0c0.967,-0 1.752,-0.785 1.752,-1.752c0,-0.968 -0.785,-1.753 -1.752,-1.753l-117.864,0l-0,-24.798c-0,-2.255 1.828,-4.083 4.082,-4.083l0.001,0c2.255,0 4.082,1.828 4.082,4.083l0,17.889c0,0.967 0.785,1.752 1.753,1.752c0.967,-0 1.752,-0.785 1.752,-1.752l-0,-17.889c-0,-4.19 -3.397,-7.587 -7.587,-7.587c-0,-0 -0.001,-0 -0.001,-0c-4.19,-0 -7.587,3.397 -7.587,7.587l0,24.798l-9.503,0c-2.975,0 -5.422,-2.26 -5.717,-5.157l2.107,-0c5.11,-0 9.252,-4.142 9.252,-9.252l-0,-3.363c-0,-1.975 -0.785,-3.869 -2.181,-5.265c-1.397,-1.397 -3.291,-2.181 -5.265,-2.181l-0.002,0c-1.974,0 -3.868,0.784 -5.265,2.181c-1.396,1.396 -2.181,3.29 -2.181,5.265l0,9.11l-3.857,0Zm-0,3.505l3.877,-0c0.303,4.835 4.321,8.662 9.232,8.662l9.412,-0c-0.482,2.686 -2.831,4.724 -5.656,4.724c-2.541,0 -5.428,0 -8.157,0c-6.166,0 -8.708,-2.542 -8.708,-8.708c-0,-4.678 -0,-4.678 -0,-4.678Zm7.362,-3.505l-0,-9.11c-0,-1.045 0.415,-2.048 1.154,-2.787c0.739,-0.739 1.742,-1.154 2.787,-1.154c0.001,-0 0.001,-0 0.002,-0c1.045,-0 2.047,0.415 2.787,1.154c0.739,0.739 1.154,1.742 1.154,2.787l0,3.363c0,3.174 -2.573,5.747 -5.747,5.747l-2.137,0Zm-10.867,0l-2.279,0c-3.174,0 -5.747,-2.573 -5.747,-5.747c-0,-4.404 -0,-11.076 -0,-15.141c-0,-2.216 1.797,-4.013 4.013,-4.013l0,0c2.217,0 4.013,1.797 4.013,4.013l0,20.888Z" style="fill:url(#_Linear1);"/>
      <path d="M60.364,19.73c-3.361,0 -6.089,2.729 -6.089,6.089c-0,3.361 2.728,6.089 6.089,6.089c3.36,0 6.088,-2.728 6.088,-6.089c0,-3.36 -2.728,-6.089 -6.088,-6.089Zm-0,3.505c-1.427,-0 -2.585,1.158 -2.585,2.584c0,1.426 1.158,2.584 2.585,2.584c1.426,0 2.584,-1.158 2.584,-2.584c-0,-1.426 -1.158,-2.584 -2.584,-2.584Z" style="fill:#f15515;"/>
      <path d="M41.527,26.878c-3.36,0 -6.089,2.728 -6.089,6.089c0,3.361 2.729,6.089 6.089,6.089c3.361,-0 6.089,-2.728 6.089,-6.089c0,-3.361 -2.728,-6.089 -6.089,-6.089Zm0,3.505c-1.426,-0 -2.584,1.158 -2.584,2.584c0,1.426 1.158,2.584 2.584,2.584c1.427,0 2.585,-1.158 2.585,-2.584c-0,-1.426 -1.158,-2.584 -2.585,-2.584Z" style="fill:#af2f1d;"/>
      <path d="M22.691,15.036c-3.36,-0 -6.089,2.728 -6.089,6.088c0,3.361 2.729,6.089 6.089,6.089c3.361,0 6.089,-2.728 6.089,-6.089c0,-3.36 -2.728,-6.088 -6.089,-6.088Zm0,3.504c-1.426,0 -2.584,1.158 -2.584,2.584c-0,1.427 1.158,2.585 2.584,2.585c1.426,-0 2.584,-1.158 2.584,-2.585c0,-1.426 -1.158,-2.584 -2.584,-2.584Z" style="fill:#7f152e;"/>
    </g>
  </g>
  <defs>
    <linearGradient id="_Linear1" x1="0" y1="0" x2="1" y2="0" gradientUnits="userSpaceOnUse" gradientTransform="matrix(-49.318,0,0,44.1065,66.2436,55.9094)">
      <stop offset="0" style="stop-color:#ff5d12;stop-opacity:1"/>
      <stop offset="1" style="stop-color:#7f152e;stop-opacity:1"/>
    </linearGradient>
  </defs>
</svg>
